<svg width="200" height="200" viewBox="0 0 200 200" fill="none" xmlns="http://www.w3.org/2000/svg">
<mask id="mask0_32_582" style="mask-type:alpha" maskUnits="userSpaceOnUse" x="0" y="0" width="200" height="200">
<rect x="0.564148" y="0.769165" width="199.197" height="199.197" rx="30" fill="white"/>
</mask>
<g mask="url(#mask0_32_582)">
<g filter="url(#filter0_d_32_582)">
<path d="M199.761 0.769165V169.966C199.761 186.535 186.33 199.966 169.761 199.966H0.564148L199.761 0.769165Z" fill="#E35E93"/>
</g>
<g filter="url(#filter1_d_32_582)">
<path d="M199.761 0.769165H30.5641C13.9956 0.769165 0.564148 14.2006 0.564148 30.7691V199.966L199.761 0.769165Z" fill="#003680"/>
</g>
<rect x="15.3054" y="15.5104" width="169.715" height="169.715" rx="25" fill="white"/>
<path d="M45.3923 141.111C59.0913 144.781 70.6488 146.069 71.2068 143.987C71.7647 141.905 61.1117 137.241 47.4127 133.57C33.7137 129.9 22.1561 128.612 21.5982 130.694C21.0403 132.776 31.6933 137.44 45.3923 141.111Z" fill="#003680"/>
<path d="M26.3064 142.74C26.3064 142.74 31.0828 123.274 27.359 119.672C23.6351 116.07 21.5353 109.321 23.233 97.1573C24.9308 84.9934 29.6289 55.6131 37.1219 54.0653C43.0745 52.8363 45.9862 57.6383 44.2324 63.2598C41.5214 71.9605 37.4879 85.5645 39.7041 85.9877C42.302 86.4829 48.974 57.586 50.1984 53.5739C51.4228 49.5617 53.7454 45.2563 58.33 46.3786C63.6398 47.6763 64.6452 52.2518 59.1658 69.5166C55.091 82.3513 54.8999 86.9019 56.3427 87.3453C58.9683 88.1512 63.2202 72.267 66.883 61.8616C70.6166 51.2553 72.2043 43.6105 78.7686 45.3695C85.3329 47.1284 82.8446 52.8639 79.4014 64.7269C75.9582 76.5899 69.7374 93.1026 72.6223 92.9886C75.0937 92.889 79.5599 79.3896 81.3001 74.3444C82.8324 69.8993 85.753 57.7257 91.5889 59.369C96.493 60.7475 98.4296 65.7013 91.5627 84.8005C84.8243 103.547 79.1046 110.165 82.1632 112.045C85.0309 113.811 92.2879 102.746 98.5057 104.795C104.724 106.844 91.5739 130.283 68.3795 132.134L62 152.296L26.3083 142.733L26.3064 142.74Z" fill="#F5B92B"/>
<path d="M53.5877 209.965L3.86371 196.642L21.5386 130.678C21.5386 130.678 20.911 133.243 45.7152 139.89C70.5195 146.536 71.2586 144.001 71.2586 144.001L53.5837 209.964L53.5877 209.965Z" fill="#E35E93"/>
<path d="M155.047 59.1989C141.348 55.5283 129.791 54.2406 129.233 56.3227C128.675 58.4049 139.328 63.0684 153.027 66.7391C166.726 70.4097 178.283 71.6975 178.841 69.6153C179.399 67.5332 168.746 62.8696 155.047 59.1989Z" fill="#E35E93"/>
<path d="M174.133 57.5696C174.133 57.5696 169.357 77.0356 173.08 80.6375C176.804 84.2395 178.904 90.9883 177.206 103.152C175.509 115.316 170.811 144.696 163.318 146.244C157.365 147.473 154.453 142.671 156.207 137.05C158.918 128.349 162.952 114.745 160.735 114.322C158.137 113.827 151.465 142.724 150.241 146.736C149.017 150.748 146.694 155.053 142.109 153.931C136.8 152.633 135.794 148.058 141.274 130.793C145.348 117.958 145.54 113.408 144.097 112.964C141.471 112.158 137.219 128.043 133.556 138.448C129.823 149.054 128.235 156.699 121.671 154.94C115.107 153.181 117.595 147.446 121.038 135.583C124.481 123.72 130.702 107.207 127.817 107.321C125.346 107.421 120.88 120.92 119.139 125.965C117.607 130.41 114.686 142.584 108.851 140.941C103.946 139.562 102.01 134.608 108.877 115.509C115.615 96.7622 121.335 90.145 118.276 88.2641C115.409 86.4988 108.152 97.5635 101.934 95.5146C95.7159 93.4657 108.866 70.0268 132.06 68.1754L138.439 48.0131L174.131 57.5767L174.133 57.5696Z" fill="#F5B92B"/>
<path d="M146.738 -9.22974L196.462 4.09376L178.901 69.6313C178.901 69.6313 179.524 67.0826 154.72 60.4363C129.916 53.79 129.181 56.3089 129.181 56.3089L146.742 -9.22868L146.738 -9.22974Z" fill="#003680"/>
</g>
<defs>
<filter id="filter0_d_32_582" x="-3.43585" y="0.769165" width="207.197" height="207.197" filterUnits="userSpaceOnUse" color-interpolation-filters="sRGB">
<feFlood flood-opacity="0" result="BackgroundImageFix"/>
<feColorMatrix in="SourceAlpha" type="matrix" values="0 0 0 0 0 0 0 0 0 0 0 0 0 0 0 0 0 0 127 0" result="hardAlpha"/>
<feOffset dy="4"/>
<feGaussianBlur stdDeviation="2"/>
<feComposite in2="hardAlpha" operator="out"/>
<feColorMatrix type="matrix" values="0 0 0 0 0 0 0 0 0 0 0 0 0 0 0 0 0 0 0.25 0"/>
<feBlend mode="normal" in2="BackgroundImageFix" result="effect1_dropShadow_32_582"/>
<feBlend mode="normal" in="SourceGraphic" in2="effect1_dropShadow_32_582" result="shape"/>
</filter>
<filter id="filter1_d_32_582" x="-3.43585" y="0.769165" width="207.197" height="207.197" filterUnits="userSpaceOnUse" color-interpolation-filters="sRGB">
<feFlood flood-opacity="0" result="BackgroundImageFix"/>
<feColorMatrix in="SourceAlpha" type="matrix" values="0 0 0 0 0 0 0 0 0 0 0 0 0 0 0 0 0 0 127 0" result="hardAlpha"/>
<feOffset dy="4"/>
<feGaussianBlur stdDeviation="2"/>
<feComposite in2="hardAlpha" operator="out"/>
<feColorMatrix type="matrix" values="0 0 0 0 0 0 0 0 0 0 0 0 0 0 0 0 0 0 0.25 0"/>
<feBlend mode="normal" in2="BackgroundImageFix" result="effect1_dropShadow_32_582"/>
<feBlend mode="normal" in="SourceGraphic" in2="effect1_dropShadow_32_582" result="shape"/>
</filter>
</defs>
</svg>
